<svg width="10" height="7" viewBox="0 0 10 7" fill="none" xmlns="http://www.w3.org/2000/svg">
<path d="M1.1301 0.668599C1.03146 0.782824 0.953216 0.918429 0.899831 1.06767C0.846447 1.21692 0.81897 1.37688 0.81897 1.53842C0.81897 1.69996 0.846447 1.85992 0.899831 2.00916C0.953216 2.1584 1.03146 2.29401 1.1301 2.40823L4.32212 6.10095C4.52169 6.3318 4.79223 6.46146 5.07431 6.46146C5.35638 6.46146 5.62693 6.3318 5.8265 6.10095L9.01745 2.40947C9.11615 2.29508 9.19444 2.1593 9.24784 2.00987C9.30123 1.86045 9.32869 1.70031 9.32864 1.5386C9.32859 1.37689 9.30103 1.21677 9.24755 1.06739C9.19406 0.918008 9.11569 0.782289 9.01691 0.667982C8.91813 0.553675 8.80088 0.463018 8.67185 0.401186C8.54281 0.339355 8.40452 0.30756 8.26488 0.307617C8.12523 0.307675 7.98697 0.339583 7.85797 0.40152C7.72897 0.463458 7.61177 0.554211 7.51307 0.668599L5.07324 3.49026L2.63555 0.668599C2.43598 0.437753 2.16544 0.308087 1.88336 0.308087C1.60128 0.308087 1.33074 0.437753 1.13117 0.668599H1.1301Z" fill="#1E266D"/>
</svg>
